{"title":"Inside_OSU_Buckeye_Sports_720p_20110219_TTL","uid":6187755,"size":599899293,"categoryP":"video","categoryS":"hd___tv_shows","magnet":"?xt=urn:btih:4c1f0dbaa03e40a1146d0240630a46c4a8a204e6&amp;dn=Inside_OSU_Buckeye_Sports_720p_20110219_TTL&amp;tr=udp%3A%2F%2Ftracker.openbittorrent.com%3A80&amp;tr=udp%3A%2F%2Fopen.demonii.com%3A1337&amp;tr=udp%3A%2F%2Ftracker.coppersurfer.tk%3A6969&amp;tr=udp%3A%2F%2Fexodus.desync.com%3A6969","seeders":0,"leechers":0,"uploader":"thetorrentlord","files":2,"time":1298170145,"description":"This is a local channel sports report about only OSU sports. Enjoy and please share.                                  ************************************************************************************** Inside_OSU_Buckeye_Sports_720p_20110219_TTL.avi\nFormat                           : AVI\nFormat/Info                      : Audio Video Interleave\nFile size                        : 572 MiB\nDuration                         : 35mn 50s\nOverall bit rate                 : 2 231 Kbps\nDirector                         : created.with.SUPER(C).v2010.bld.37\nWriting application              : SUPER(C) - by eRightSoft\n\nVideo\nID                               : 0\nFormat                           : MPEG-4 Visual\nFormat profile                   : Advanced Simple@L5\nFormat settings, BVOP            : Yes\nFormat settings, QPel            : No\nFormat settings, GMC             : No warppoints\nFormat settings, Matrix          : Default (MPEG)\nCodec ID                         : XVID\nCodec ID/Hint                    : XviD\nDuration                         : 17mn 55s\nBit rate                         : 4 338 Kbps\nWidth                            : 1 280 pixels\nHeight                           : 720 pixels\nDisplay aspect ratio             : 16:9\nFrame rate                       : 29.970 fps\nColor space                      : YUV\nChroma subsampling               : 4:2:0\nBit depth                        : 8 bits\nScan type                        : Progressive\nBits/(Pixel*Frame)               : 0.157\nStream size                      : 556 MiB (97%)\nWriting library                  : XviD 1.1.2 (UTC 2006-11-01)\n\nAudio\nID                               : 1\nFormat                           : MPEG Audio\nFormat version                   : Version 2\nFormat profile                   : Layer 3\nCodec ID                         : 55\nCodec ID/Hint                    : MP3\nDuration                         : 35mn 50s\nBit rate mode                    : Constant\nBit rate                         : 112 Kbps\nChannel(s)                       : 2 channels\nSampling rate                    : 22.05 KHz\nVideo delay                      : 33ms\nStream size                      : 14.4 MiB (3%)\nAlignment                        : Aligned on interleaves\nInterleave, duration             : 26 ms (0.78 video frame)\nInterleave, preload duration     : 522 ms\nWriting library                  : LAME3.97\n\n","torrent":{"xt":"urn:btih:4c1f0dbaa03e40a1146d0240630a46c4a8a204e6","amp;dn":"Inside_OSU_Buckeye_Sports_720p_20110219_TTL","amp;tr":["udp%3A%2F%2Ftracker.openbittorrent.com%3A80","udp%3A%2F%2Fopen.demonii.com%3A1337","udp%3A%2F%2Ftracker.coppersurfer.tk%3A6969","udp%3A%2F%2Fexodus.desync.com%3A6969"],"infoHash":"4c1f0dbaa03e40a1146d0240630a46c4a8a204e6","infoHashBuffer":{"type":"Buffer","data":[76,31,13,186,160,62,64,161,20,109,2,64,99,10,70,196,168,162,4,230]},"announce":[],"urlList":[]}}